<svg width="24" height="24" viewBox="0 0 24 24" fill="none" xmlns="http://www.w3.org/2000/svg">
<path d="M23 22C23 22.5527 22.5527 23 22 23H2C1.44727 23 1 22.5527 1 22C1 21.4473 1.44727 21 2 21H4V17C4 16.4473 4.44727 16 5 16C5.55273 16 6 16.4473 6 17V21H8.66699V13C8.66699 12.4473 9.11426 12 9.66699 12C10.2197 12 10.667 12.4473 10.667 13V21H13.333V15C13.333 14.4473 13.7803 14 14.333 14C14.8857 14 15.333 14.4473 15.333 15V21H18V11C18 10.4473 18.4473 10 19 10C19.5527 10 20 10.4473 20 11V21H22C22.5527 21 23 21.4473 23 22ZM4 13C5.10254 13 6 12.1025 6 11C6 10.8289 5.97168 10.6655 5.93103 10.5068L9.56024 6.94769C9.70221 6.9798 9.84851 7 10 7C10.2057 7 10.4005 6.95972 10.5874 6.90173L11.9598 8.29547C11.9147 8.46204 11.8828 8.63385 11.8828 8.81445C11.8828 9.91699 12.7803 10.8145 13.8828 10.8145C14.9853 10.8145 15.8828 9.91699 15.8828 8.81445C15.8828 8.659 15.8609 8.50934 15.8271 8.36401L19.478 4.92212C19.6455 4.96777 19.8183 5 20 5C21.1025 5 22 4.10254 22 3C22 1.89746 21.1025 1 20 1C18.8975 1 18 1.89746 18 3C18 3.17389 18.0294 3.33972 18.0713 3.50067L14.4565 6.90845C14.2736 6.85309 14.0836 6.81445 13.8828 6.81445C13.7078 6.81445 13.5411 6.84424 13.3792 6.88666L11.9493 5.43451C11.9807 5.29419 12 5.1496 12 5C12 3.89746 11.1025 3 10 3C8.89746 3 8 3.89746 8 5C8 5.20374 8.03961 5.39661 8.09656 5.58197L4.52948 9.08026C4.35974 9.03327 4.18445 9 4 9C2.89746 9 2 9.89746 2 11C2 12.1025 2.89746 13 4 13Z" fill="black"/>
</svg>
