<svg width="24" height="15" viewBox="0 0 24 15" fill="none" xmlns="http://www.w3.org/2000/svg">
<g clip-path="url(#clip0_1_6549)">
<path d="M3.72 13.48L12 5.65L12 5.66L20.12 13.35C20.97 14.19 22.34 14.22 23.24 13.44C23.72 13.03 23.99 12.46 24 11.83C24 11.17 23.78 10.62 23.34 10.17L13.96 0.9C13.69 0.63 12.86 -0.18 11.74 0.0399997C10.98 0.2 10.57 0.61 10.22 0.98L0.64 10.46C0.219999 10.86 1.1857e-07 11.4 9.36545e-08 11.97C6.8739e-08 12.54 0.23 13.08 0.639999 13.48C1.06 13.89 1.59 14.11 2.18 14.11C2.77 14.11 3.31 13.88 3.72 13.48Z" fill="black"/>
</g>
<defs>
<clipPath id="clip0_1_6549">
<rect width="14.11" height="24" fill="white" transform="translate(24 1.04907e-06) rotate(90)"/>
</clipPath>
</defs>
</svg>
