<svg width="15" height="24" viewBox="0 0 15 24" fill="none" xmlns="http://www.w3.org/2000/svg">
<g clip-path="url(#clip0_1_6545)">
<path d="M0.630003 3.72L8.46 12L8.45 12L0.760001 20.12C-0.0799997 20.97 -0.109999 22.34 0.670001 23.24C1.08 23.72 1.65 23.99 2.28 24C2.94 24 3.49 23.78 3.94 23.34L13.21 13.96C13.48 13.69 14.29 12.86 14.07 11.74C13.91 10.98 13.5 10.57 13.13 10.22L3.65 0.64C3.25 0.22 2.71 2.3714e-07 2.14 1.87309e-07C1.57 1.37478e-07 1.03 0.23 0.630003 0.639999C0.220003 1.06 2.91282e-06 1.59 2.86124e-06 2.18C2.80966e-06 2.77 0.230003 3.31 0.630003 3.72Z" fill="black"/>
</g>
<defs>
<clipPath id="clip0_1_6545">
<rect width="14.11" height="24" fill="white" transform="translate(14.11 24) rotate(-180)"/>
</clipPath>
</defs>
</svg>
