<svg width="24" height="15" viewBox="0 0 24 15" fill="none" xmlns="http://www.w3.org/2000/svg">
<g clip-path="url(#clip0_1_6547)">
<path d="M20.28 0.630001L12 8.46L12 8.45L3.88 0.760001C3.03 -0.079999 1.66 -0.109998 0.76 0.670002C0.28 1.08 0.0100001 1.65 9.9774e-08 2.28C1.28624e-07 2.94 0.22 3.49 0.66 3.94L10.04 13.21C10.31 13.48 11.14 14.29 12.26 14.07C13.02 13.91 13.43 13.5 13.78 13.13L23.36 3.65C23.78 3.25 24 2.71 24 2.14C24 1.57 23.77 1.03 23.36 0.630001C22.94 0.220001 22.41 1.02318e-06 21.82 1.04897e-06C21.23 1.07475e-06 20.69 0.230002 20.28 0.630001Z" fill="black"/>
</g>
<defs>
<clipPath id="clip0_1_6547">
<rect width="14.11" height="24" fill="white" transform="translate(6.16768e-07 14.11) rotate(-90)"/>
</clipPath>
</defs>
</svg>
