<svg width="24" height="24" viewBox="0 0 24 24" fill="none" xmlns="http://www.w3.org/2000/svg">
<path d="M11 22C11 22.5527 10.5522 23 10 23H7C4.24316 23 2 20.7568 2 18V6C2 3.24316 4.24316 1 7 1H15C17.7568 1 20 3.24316 20 6V12C20 12.5527 19.5522 13 19 13C18.4478 13 18 12.5527 18 12V6C18 4.3457 16.6543 3 15 3H7C5.3457 3 4 4.3457 4 6V18C4 19.6543 5.3457 21 7 21H10C10.5522 21 11 21.4473 11 22ZM10 15H7C6.44775 15 6 15.4473 6 16C6 16.5527 6.44775 17 7 17H10C10.5522 17 11 16.5527 11 16C11 15.4473 10.5522 15 10 15ZM15 11H7C6.44775 11 6 11.4473 6 12C6 12.5527 6.44775 13 7 13H15C15.5522 13 16 12.5527 16 12C16 11.4473 15.5522 11 15 11ZM15 7H7C6.44775 7 6 7.44727 6 8C6 8.55273 6.44775 9 7 9H15C15.5522 9 16 8.55273 16 8C16 7.44727 15.5522 7 15 7ZM21.7134 14.9658C21.3257 14.5713 20.6919 14.5664 20.2993 14.9541L15.5728 19.5977L13.7007 17.7588C13.3076 17.3711 12.6738 17.376 12.2866 17.7705C11.8994 18.165 11.9053 18.7979 12.2993 19.1846L14.8721 21.7129C15.0664 21.9043 15.3193 22 15.5728 22C15.8257 22 16.0791 21.9043 16.2734 21.7129L21.7007 16.3799C22.0947 15.9932 22.1006 15.3604 21.7134 14.9658Z" fill="black"/>
</svg>
