<svg width="24" height="24" viewBox="0 0 24 24" fill="none" xmlns="http://www.w3.org/2000/svg">
<path d="M18 5V4C18 2.3457 16.6543 1 15 1H9C7.3457 1 6 2.3457 6 4V5C3.24316 5 1 7.24316 1 10V18C1 20.7568 3.24316 23 6 23H18C20.7568 23 23 20.7568 23 18V10C23 7.24316 20.7568 5 18 5ZM8 4C8 3.44824 8.44873 3 9 3H15C15.5518 3 16 3.44824 16 4V5H8V4ZM3 10C3 8.3457 4.3457 7 6 7H18C19.6543 7 21 8.3457 21 10V11H18V10C18 9.44727 17.5527 9 17 9C16.4473 9 16 9.44727 16 10V11H8V10C8 9.44727 7.55225 9 7 9C6.44775 9 6 9.44727 6 10V11H3V10ZM18 21H6C4.3457 21 3 19.6543 3 18V13H6V14C6 14.5527 6.44775 15 7 15C7.55225 15 8 14.5527 8 14V13H16V14C16 14.5527 16.4473 15 17 15C17.5527 15 18 14.5527 18 14V13H21V18C21 19.6543 19.6543 21 18 21Z" fill="black"/>
</svg>
