<svg width="24" height="24" viewBox="0 0 24 24" fill="none" xmlns="http://www.w3.org/2000/svg">
<path d="M22 21.0009V17.0009C22 15.8983 21.1025 15.0009 20 15.0009H18C16.8975 15.0009 16 15.8983 16 17.0009V21.0009H15V15.0009C15 13.8983 14.1025 13.0009 13 13.0009H11C9.89746 13.0009 9 13.8983 9 15.0009V21.0009H8V11.0009C8 9.89832 7.10254 9.00086 6 9.00086H4C2.89746 9.00086 2 9.89832 2 11.0009V21.0009C1.44727 21.0009 1 21.4481 1 22.0009C1 22.5536 1.44727 23.0009 2 23.0009H22C22.5527 23.0009 23 22.5536 23 22.0009C23 21.4481 22.5527 21.0009 22 21.0009ZM4 21.0009V11.0009H6V21.0009H4ZM11 21.0009V15.0009H13V21.0009H11ZM18 21.0009V17.0009H20V21.0009H18ZM3.02734 1.76746C3.15625 1.22938 3.69531 0.898321 4.2334 1.0282C11.5673 2.79145 16.5369 6.89435 19 9.37952V8.00086C19 7.44813 19.4473 7.00086 20 7.00086C20.5527 7.00086 21 7.44813 21 8.00086V12.0009C21 12.5536 20.5527 13.0009 20 13.0009H16C15.4473 13.0009 15 12.5536 15 12.0009C15 11.4481 15.4473 11.0009 16 11.0009H17.7736C15.5483 8.72907 10.7637 4.65534 3.7666 2.97352C3.22949 2.84363 2.89844 2.30457 3.02734 1.76746Z" fill="black"/>
</svg>
