<svg width="24" height="24" viewBox="0 0 24 24" fill="none" xmlns="http://www.w3.org/2000/svg">
<path d="M22.1299 17.6192C22.8887 16.1319 23.1592 14.4737 22.9111 12.7969C22.3874 9.27358 19.4786 6.47976 15.951 6.06185C15.5994 5.44106 15.1731 4.85867 14.6572 4.3428C12.9795 2.66506 10.6562 1.82717 8.27929 2.03128C4.64843 2.35061 1.62401 5.19631 1.08886 8.79788C0.840811 10.4746 1.11132 12.1319 1.87011 13.6192L1.34765 15.5713C1.18944 16.1651 1.35351 16.7783 1.78808 17.2119C2.22265 17.6465 2.83983 17.8115 3.42968 17.6524L5.38085 17.1299C6.22826 17.5624 7.13079 17.8362 8.06097 17.946C9.25255 20.0242 11.3459 21.5468 13.7978 21.9112C14.2021 21.9707 14.6045 22.001 15.0039 22.001C16.2627 22.001 17.4902 21.7061 18.6191 21.1299L20.5713 21.6524C21.1621 21.8135 21.7783 21.6475 22.2119 21.2119C22.6465 20.7783 22.8105 20.1651 22.6523 19.5703L22.1299 17.6192ZM5.50683 15.0606C5.41991 15.0606 5.333 15.0723 5.24804 15.0948L3.41405 15.586L3.90526 13.752C3.97362 13.4961 3.93847 13.2227 3.80566 12.9932C3.12011 11.8067 2.86523 10.458 3.06737 9.09182C3.46777 6.39456 5.73437 4.26272 8.45507 4.02346C10.2393 3.86819 11.9844 4.49905 13.2432 5.75686C14.501 7.01565 15.1328 8.76077 14.9766 10.5449C14.7373 13.2657 12.6055 15.5323 9.90917 15.9326C8.54589 16.1348 7.19237 15.8809 6.00683 15.1944C5.85351 15.1065 5.68066 15.0606 5.50683 15.0606ZM20.1943 16.9932C20.0615 17.2227 20.0264 17.4961 20.0947 17.752L20.5859 19.586L18.7519 19.0948C18.4961 19.0264 18.2226 19.0615 17.9932 19.1944C16.8076 19.8799 15.457 20.1348 14.0918 19.9326C12.6366 19.7166 11.3612 18.9464 10.4468 17.8639C13.9304 17.2308 16.6567 14.2685 16.9687 10.7197C17.0403 9.90237 16.9791 9.09316 16.8107 8.3121C18.9396 8.99239 20.5968 10.8297 20.9326 13.0908C21.1348 14.458 20.8799 15.8067 20.1943 16.9932Z" fill="black"/>
</svg>
