<svg width="28" height="28" viewBox="0 0 28 28" fill="none" xmlns="http://www.w3.org/2000/svg">
<path d="M14 0C21.732 0 28 6.26801 28 14C28 21.732 21.732 28 14 28C6.26801 28 0 21.732 0 14C0 6.26801 6.26801 0 14 0ZM14 1.59961C7.15167 1.59961 1.59961 7.15167 1.59961 14C1.59961 20.8483 7.15167 26.4004 14 26.4004C20.8483 26.4004 26.4004 20.8483 26.4004 14C26.4004 7.15167 20.8483 1.59961 14 1.59961ZM18.3125 10.3662C18.6752 9.99006 19.2623 9.99008 19.625 10.3662C19.9877 10.7424 19.9877 11.3514 19.625 11.7275L13.7598 17.8115C13.4096 18.1747 12.7965 18.1747 12.4463 17.8115L9.16992 14.4131C8.80722 14.0369 8.80722 13.4269 9.16992 13.0508C9.35741 12.8565 9.59461 12.7657 9.83203 12.7656C10.0696 12.7656 10.3075 12.8563 10.4951 13.0508L13.1094 15.7617L18.3125 10.3662Z" fill="black"/>
</svg>
