<svg width="24" height="24" viewBox="0 0 24 24" fill="none" xmlns="http://www.w3.org/2000/svg">
<path d="M21.4286 24H2.57143C1.15346 24 0 22.8465 0 21.4286V6C0 4.58203 1.15346 3.42857 2.57143 3.42857H5.14286V2.57143C5.14286 1.15346 6.29632 0 7.71429 0H16.2857C17.7037 0 18.8571 1.15346 18.8571 2.57143V3.42857H21.4286C22.8465 3.42857 24 4.58203 24 6V21.4286C24 22.8465 22.8465 24 21.4286 24ZM18.8571 22.2857H21.4286C21.9015 22.2857 22.2857 21.9011 22.2857 21.4286V6C22.2857 5.52748 21.9015 5.14286 21.4286 5.14286H18.8571V22.2857ZM15.4286 22.2857H17.1429V2.57143C17.1429 2.09891 16.7586 1.71429 16.2857 1.71429H7.71429C7.24135 1.71429 6.85714 2.09891 6.85714 2.57143V22.2857H8.57143V15.4286C8.57143 14.9552 8.9548 14.5714 9.42857 14.5714H14.5714C15.0452 14.5714 15.4286 14.9552 15.4286 15.4286V22.2857ZM10.2857 22.2857H13.7143V16.2857H10.2857V22.2857ZM2.57143 5.14286C2.09849 5.14286 1.71429 5.52748 1.71429 6V21.4286C1.71429 21.9011 2.09849 22.2857 2.57143 22.2857H5.14286V5.14286H2.57143ZM14.5714 12H13.7143C13.2405 12 12.8571 11.6162 12.8571 11.1429C12.8571 10.6695 13.2405 10.2857 13.7143 10.2857H14.5714C15.0452 10.2857 15.4286 10.6695 15.4286 11.1429C15.4286 11.6162 15.0452 12 14.5714 12ZM10.2857 12H9.42857C8.9548 12 8.57143 11.6162 8.57143 11.1429C8.57143 10.6695 8.9548 10.2857 9.42857 10.2857H10.2857C10.7595 10.2857 11.1429 10.6695 11.1429 11.1429C11.1429 11.6162 10.7595 12 10.2857 12ZM14.5714 8.57143H13.7143C13.2405 8.57143 12.8571 8.18764 12.8571 7.71429C12.8571 7.24093 13.2405 6.85714 13.7143 6.85714H14.5714C15.0452 6.85714 15.4286 7.24093 15.4286 7.71429C15.4286 8.18764 15.0452 8.57143 14.5714 8.57143ZM10.2857 8.57143H9.42857C8.9548 8.57143 8.57143 8.18764 8.57143 7.71429C8.57143 7.24093 8.9548 6.85714 9.42857 6.85714H10.2857C10.7595 6.85714 11.1429 7.24093 11.1429 7.71429C11.1429 8.18764 10.7595 8.57143 10.2857 8.57143ZM14.5714 5.14286H13.7143C13.2405 5.14286 12.8571 4.75907 12.8571 4.28571C12.8571 3.81236 13.2405 3.42857 13.7143 3.42857H14.5714C15.0452 3.42857 15.4286 3.81236 15.4286 4.28571C15.4286 4.75907 15.0452 5.14286 14.5714 5.14286ZM10.2857 5.14286H9.42857C8.9548 5.14286 8.57143 4.75907 8.57143 4.28571C8.57143 3.81236 8.9548 3.42857 9.42857 3.42857H10.2857C10.7595 3.42857 11.1429 3.81236 11.1429 4.28571C11.1429 4.75907 10.7595 5.14286 10.2857 5.14286Z" fill="black"/>
</svg>
