<svg width="29" height="32" viewBox="0 0 29 32" fill="none" xmlns="http://www.w3.org/2000/svg">
<path d="M5.81956 13.9319C5.4101 13.1026 5.19411 12.1914 5.19411 11.2539C5.19411 7.91234 7.91236 5.19409 11.2539 5.19409C13.245 5.19409 15.1036 6.18141 16.2299 7.80024C16.303 7.79807 16.3744 7.79115 16.448 7.79115C19.7653 7.79115 22.6022 9.96055 23.5081 13.0649C23.7574 13.0194 24.0193 12.9853 24.2387 12.9853C26.8639 12.9853 29 15.1213 29 17.7465C29 20.3717 26.8639 22.5078 24.2387 22.5078C23.7604 22.5078 23.3731 22.12 23.3731 21.6421C23.3731 21.1642 23.7604 20.7764 24.2387 20.7764C25.9095 20.7764 27.2686 19.4169 27.2686 17.7465C27.2686 16.0762 25.9095 14.7166 24.2387 14.7166C24.1188 14.7166 23.9258 14.7461 23.7224 14.7867V15.5823C23.7224 16.0602 23.3345 16.448 22.8567 16.448C22.3788 16.448 21.991 16.0602 21.991 15.5823V14.1881C21.5261 11.482 19.2048 9.52251 16.448 9.52251C13.6904 9.52251 11.369 11.4829 10.9046 14.1899V15.5823C10.9046 16.0602 10.5168 16.448 10.0389 16.448C9.56105 16.448 9.17323 16.0602 9.17323 15.5823V14.7872C8.96893 14.7465 8.77545 14.7166 8.65641 14.7166C6.98608 14.7166 5.62652 16.0762 5.62652 17.7465C5.62652 19.4169 6.98608 20.7764 8.65641 20.7764C9.13427 20.7764 9.5221 21.1642 9.5221 21.6421C9.5221 22.12 9.13427 22.5078 8.65641 22.5078C6.03123 22.5078 3.89515 20.3717 3.89515 17.7465C3.89515 16.1848 4.65435 14.8006 5.81956 13.9319ZM7.37434 13.1657C7.78294 13.051 8.21189 12.9853 8.65641 12.9853C8.8763 12.9853 9.13774 13.0194 9.38749 13.0649C10.0835 10.6795 11.9213 8.85118 14.2392 8.13006C13.4445 7.37129 12.3806 6.92546 11.2539 6.92546C8.86721 6.92546 6.92548 8.86719 6.92548 11.2539C6.92548 11.9239 7.08174 12.5741 7.37434 13.1657Z" fill="black"/>
<path d="M11.2539 3.46274C10.7761 3.46274 10.3883 3.07491 10.3883 2.59705V0.865685C10.3883 0.387827 10.7761 0 11.2539 0C11.7318 0 12.1196 0.387827 12.1196 0.865685V2.59705C12.1196 3.07491 11.7322 3.46274 11.2539 3.46274Z" fill="black"/>
<path d="M0.865715 10.3882H2.59708C3.07494 10.3882 3.46277 10.776 3.46277 11.2539C3.46277 11.7317 3.07494 12.1196 2.59708 12.1196H0.865715C0.387857 12.1196 3.05176e-05 11.7317 3.05176e-05 11.2539C3.05176e-05 10.776 0.387857 10.3882 0.865715 10.3882Z" fill="black"/>
<path d="M5.13259 5.99782C4.91098 5.99782 4.68979 5.91341 4.52055 5.74417L3.29647 4.5201C2.95842 4.18205 2.95842 3.63407 3.29647 3.29602C3.63452 2.95797 4.1825 2.95797 4.52055 3.29602L5.74463 4.5201C6.08268 4.85815 6.08268 5.40612 5.74463 5.74417C5.57539 5.91341 5.35421 5.99782 5.13259 5.99782Z" fill="black"/>
<path d="M17.9876 5.74417C17.8188 5.91341 17.5972 5.99782 17.3756 5.99782C17.1539 5.99782 16.9323 5.91341 16.7635 5.74417C16.4255 5.40612 16.4255 4.85815 16.7635 4.5201L17.9876 3.29602C18.3252 2.95797 18.8741 2.95797 19.2117 3.29602C19.5497 3.63407 19.5497 4.18205 19.2117 4.5201L17.9876 5.74417Z" fill="black"/>
<path d="M20.0839 21.1227C20.4111 20.6873 21.1418 20.6873 21.469 21.1227C21.8144 21.5828 22.9407 23.1679 22.9407 24.2392C22.9407 25.5135 22.0508 26.4034 20.7765 26.4034C19.5022 26.4034 18.6123 25.5135 18.6123 24.2392C18.6123 23.1679 19.7389 21.5828 20.0839 21.1227Z" fill="black"/>
<path d="M12.8126 21.1227C13.1576 21.5828 14.2838 23.1679 14.2838 24.2392C14.2838 25.5135 13.3939 26.4034 12.1196 26.4034C10.8453 26.4034 9.95539 25.5135 9.95539 24.2392C9.95539 23.1679 11.0821 21.5828 11.4271 21.1227C11.7543 20.6873 12.4854 20.6873 12.8126 21.1227Z" fill="black"/>
<path d="M17.141 26.3168C17.4859 26.7769 18.6122 28.362 18.6122 29.4333C18.6122 30.7076 17.7223 31.5975 16.448 31.5975C15.1737 31.5975 14.2838 30.7076 14.2838 29.4333C14.2838 28.362 15.4104 26.7769 15.7554 26.3168C16.0827 25.8814 16.8137 25.8814 17.141 26.3168Z" fill="black"/>
</svg>
