<svg width="24" height="24" viewBox="0 0 24 24" fill="none" xmlns="http://www.w3.org/2000/svg">
<path d="M18 1H6C3.24316 1 1 3.24316 1 6V14C1 16.7568 3.24316 19 6 19H7.71912L7.21912 21H6C5.44775 21 5 21.4478 5 22C5 22.5522 5.44775 23 6 23H18C18.5522 23 19 22.5522 19 22C19 21.4478 18.5522 21 18 21H16.7809L16.2809 19H18C20.7568 19 23 16.7568 23 14V6C23 3.24316 20.7568 1 18 1ZM14.7192 21H9.28076L9.78076 19H14.2192L14.7192 21ZM21 14C21 15.6543 19.6543 17 18 17H6C4.3457 17 3 15.6543 3 14V6C3 4.3457 4.3457 3 6 3H18C19.6543 3 21 4.3457 21 6V14ZM6 8C6 7.44775 6.44775 7 7 7H12C12.5522 7 13 7.44775 13 8C13 8.55225 12.5522 9 12 9H7C6.44775 9 6 8.55225 6 8ZM18 12C18 12.5522 17.5522 13 17 13H7C6.44775 13 6 12.5522 6 12C6 11.4478 6.44775 11 7 11H17C17.5522 11 18 11.4478 18 12Z" fill="black"/>
</svg>
