<svg width="21" height="22" viewBox="0 0 21 22" fill="none" xmlns="http://www.w3.org/2000/svg">
<g clip-path="url(#clip0_1_6909)">
<path d="M17.01 5.35H15.94V3.82C15.94 1.72 14.23 0 12.12 0H3.82C1.71 0 0 1.71 0 3.82V12.12C0 14.22 1.71 15.94 3.82 15.94H4.89V17.47C4.89 19.57 6.6 21.29 8.71 21.29H17.01C19.11 21.29 20.83 19.58 20.83 17.47V9.17C20.83 7.07 19.12 5.35 17.01 5.35ZM3.82 13.94C2.82 13.94 2 13.12 2 12.12V3.82C2 2.82 2.81 2 3.82 2H12.12C13.12 2 13.94 2.81 13.94 3.82V5.35H8.71C6.61 5.35 4.89 7.06 4.89 9.17V13.94H3.82ZM18.83 17.47C18.83 18.47 18.01 19.29 17.01 19.29H8.71C7.71 19.29 6.89 18.47 6.89 17.47V9.17C6.89 8.17 7.7 7.35 8.71 7.35H17.01C18.01 7.35 18.83 8.16 18.83 9.17V17.47Z" fill="black"/>
</g>
<defs>
<clipPath id="clip0_1_6909">
<rect width="20.83" height="21.28" fill="white"/>
</clipPath>
</defs>
</svg>
