<svg width="24" height="24" viewBox="0 0 24 24" fill="none" xmlns="http://www.w3.org/2000/svg">
<path d="M18 1H6C3.24316 1 1 3.24316 1 6V18C1 20.7568 3.24316 23 6 23H18C20.7568 23 23 20.7568 23 18V6C23 3.24316 20.7568 1 18 1ZM6 3H18C19.6543 3 21 4.3457 21 6H3C3 4.3457 4.3457 3 6 3ZM18 21H6C4.3457 21 3 19.6543 3 18V8H21V18C21 19.6543 19.6543 21 18 21ZM17.9785 11.1211V13.978C17.9785 14.5303 17.5312 14.978 16.9785 14.978C16.4258 14.978 15.9785 14.5303 15.9785 13.978V13.4489L13.2373 16.0508C12.8564 16.4146 12.2559 16.418 11.8691 16.0591L10.5957 14.8789L7.70801 17.606C7.51465 17.7886 7.26758 17.8789 7.02148 17.8789C6.75586 17.8789 6.49121 17.7739 6.29395 17.5654C5.91504 17.1641 5.93359 16.5312 6.33496 16.1519L9.90332 12.7822C10.2861 12.4214 10.8848 12.4189 11.2695 12.7759L12.541 13.9546L14.4727 12.1211H14.1211C13.5684 12.1211 13.1211 11.6733 13.1211 11.1211C13.1211 10.5688 13.5684 10.1211 14.1211 10.1211H16.9785C17.5313 10.1211 17.9785 10.5688 17.9785 11.1211Z" fill="black"/>
</svg>
