<svg width="24" height="24" viewBox="0 0 24 24" fill="none" xmlns="http://www.w3.org/2000/svg">
<path d="M23.3615 10.5178C22.539 9.70546 21.1105 9.70546 20.2881 10.5178L14.1412 16.5891V2.10926C14.1412 0.954869 13.1889 0 12.0201 0C10.8514 0 9.88461 0.940618 9.88461 2.10926V16.5891L3.88206 10.6603C3.03074 9.81948 1.65996 9.79097 0.76535 10.5748C0.303615 10.9881 0.015032 11.5724 0.000602776 12.1853C-0.0138264 12.7981 0.231469 13.4109 0.664345 13.8385L10.0433 23.1021C10.2886 23.3444 10.9524 24 11.8758 24C12.0057 24 12.1356 24 12.2654 23.9572C13.0302 23.8005 13.4342 23.3872 13.7805 23.0166L23.3615 13.5534C24.2128 12.7126 24.2128 11.3587 23.3615 10.5178Z" fill="black"/>
</svg>
