<svg width="15" height="15" viewBox="0 0 15 15" fill="none" xmlns="http://www.w3.org/2000/svg">
<path d="M14.1083 5.73792L12.5 4.61212V2.5C12.5 1.46606 11.6589 0.625 10.625 0.625H4.375C3.34106 0.625 2.5 1.46606 2.5 2.5V4.61212L0.891724 5.73792C0.724488 5.8548 0.625 6.04614 0.625 6.25V11.25C0.625 12.973 2.02698 14.375 3.75 14.375H11.25C12.973 14.375 14.375 12.973 14.375 11.25V6.25C14.375 6.04614 14.2755 5.8548 14.1083 5.73792ZM4.375 1.875H10.625C10.9698 1.875 11.25 2.15546 11.25 2.5V7.23698L7.5 9.86206L3.75 7.23694V2.5C3.75 2.15546 4.03015 1.875 4.375 1.875ZM11.25 13.125H3.75C2.71606 13.125 1.875 12.2839 1.875 11.25V7.45018L2.7655 8.07358C2.76596 8.07388 2.76627 8.07434 2.76672 8.07465L4.54803 9.32152L3.93311 10.0012C3.70117 10.2573 3.72131 10.6525 3.97705 10.8841C4.09668 10.9921 4.24683 11.0455 4.39636 11.0455C4.56665 11.0455 4.73633 10.9763 4.85962 10.8398L5.57983 10.0438L7.14172 11.1371C7.24915 11.2125 7.37488 11.25 7.5 11.25C7.62512 11.25 7.75085 11.2125 7.85828 11.1371L9.42017 10.0438L10.1404 10.8398C10.2637 10.9763 10.4333 11.0455 10.6036 11.0455C10.7532 11.0455 10.9033 10.9921 11.0229 10.8841C11.2787 10.6525 11.2988 10.2573 11.0669 10.0012L10.452 9.32152L12.2333 8.07465C12.2337 8.07438 12.2339 8.07404 12.2343 8.07377L13.125 7.45022V11.25C13.125 12.2839 12.2839 13.125 11.25 13.125ZM5 6.25C5 5.90485 5.27954 5.625 5.625 5.625H9.375C9.72046 5.625 10 5.90485 10 6.25C10 6.59515 9.72046 6.875 9.375 6.875H5.625C5.27954 6.875 5 6.59515 5 6.25ZM5 3.75C5 3.40485 5.27954 3.125 5.625 3.125H9.375C9.72046 3.125 10 3.40485 10 3.75C10 4.09515 9.72046 4.375 9.375 4.375H5.625C5.27954 4.375 5 4.09515 5 3.75Z" fill="#DB0D15"/>
</svg>
