<svg width="18" height="18" viewBox="0 0 18 18" fill="none" xmlns="http://www.w3.org/2000/svg">
<path d="M16.9299 6.8855L15 5.53455V3C15 1.75928 13.9907 0.75 12.75 0.75H5.25C4.00928 0.75 3 1.75928 3 3V5.53455L1.07007 6.8855C0.869385 7.02576 0.75 7.25537 0.75 7.5V13.5C0.75 15.5676 2.43237 17.25 4.5 17.25H13.5C15.5676 17.25 17.25 15.5676 17.25 13.5V7.5C17.25 7.25537 17.1306 7.02576 16.9299 6.8855ZM5.25 2.25H12.75C13.1638 2.25 13.5 2.58655 13.5 3V8.68437L9 11.8345L4.5 8.68433V3C4.5 2.58655 4.83618 2.25 5.25 2.25ZM13.5 15.75H4.5C3.25928 15.75 2.25 14.7407 2.25 13.5V8.94022L3.3186 9.68829C3.31915 9.68866 3.31952 9.68921 3.32007 9.68958L5.45764 11.1858L4.71973 12.0015C4.44141 12.3087 4.46558 12.783 4.77246 13.0609C4.91602 13.1906 5.09619 13.2546 5.27563 13.2546C5.47998 13.2546 5.68359 13.1715 5.83154 13.0078L6.6958 12.0526L8.57007 13.3645C8.69897 13.455 8.84985 13.5 9 13.5C9.15015 13.5 9.30102 13.455 9.42993 13.3645L11.3042 12.0526L12.1685 13.0078C12.3164 13.1715 12.52 13.2546 12.7244 13.2546C12.9038 13.2546 13.084 13.1906 13.2275 13.0609C13.5344 12.783 13.5586 12.3087 13.2803 12.0015L12.5424 11.1858L14.6799 9.68958C14.6804 9.68926 14.6807 9.68884 14.6811 9.68852L15.75 8.94026V13.5C15.75 14.7407 14.7407 15.75 13.5 15.75ZM6 7.5C6 7.08582 6.33545 6.75 6.75 6.75H11.25C11.6646 6.75 12 7.08582 12 7.5C12 7.91419 11.6646 8.25 11.25 8.25H6.75C6.33545 8.25 6 7.91419 6 7.5ZM6 4.5C6 4.08582 6.33545 3.75 6.75 3.75H11.25C11.6646 3.75 12 4.08582 12 4.5C12 4.91419 11.6646 5.25 11.25 5.25H6.75C6.33545 5.25 6 4.91419 6 4.5Z" fill="#2A2C31"/>
</svg>
