<svg width="32" height="32" viewBox="0 0 32 32" fill="none" xmlns="http://www.w3.org/2000/svg">
<path d="M16 30C15.4478 30 15 29.5527 15 29V26.9551C9.73047 26.4785 5.52197 22.2695 5.04492 17H3C2.44775 17 2 16.5527 2 16C2 15.4473 2.44775 15 3 15H5.04492C5.52197 9.73047 9.73047 5.52148 15 5.04492V3C15 2.44727 15.4478 2 16 2C16.5522 2 17 2.44727 17 3V5.04492C22.2695 5.52148 26.4785 9.73047 26.9551 15H29C29.5527 15 30 15.4473 30 16C30 16.5527 29.5527 17 29 17H26.9551C26.4785 22.2695 22.2695 26.4785 17 26.9551V29C17 29.5527 16.5522 30 16 30ZM17 22.9287V24.9443C21.165 24.4824 24.4824 21.165 24.9443 17H22.9287C22.4893 20.0615 20.0615 22.4893 17 22.9287ZM7.05518 17C7.51758 21.165 10.835 24.4824 15 24.9443V22.9287C11.939 22.4893 9.51123 20.0615 9.07129 17H7.05518ZM16 11C13.2432 11 11 13.2432 11 16C11 18.7568 13.2432 21 16 21C18.7568 21 21 18.7568 21 16C21 13.2432 18.7568 11 16 11ZM22.9287 15H24.9443C24.4824 10.835 21.165 7.51758 17 7.05566V9.07129C20.0615 9.51074 22.4893 11.9385 22.9287 15ZM7.05518 15H9.07129C9.51123 11.9385 11.939 9.51074 15 9.07129V7.05566C10.835 7.51758 7.51758 10.835 7.05518 15ZM16 19C14.3457 19 13 17.6543 13 16C13 14.3457 14.3457 13 16 13C17.6543 13 19 14.3457 19 16C19 17.6543 17.6543 19 16 19ZM16 15C15.4487 15 15 15.4482 15 16C15 16.5518 15.4487 17 16 17C16.5513 17 17 16.5518 17 16C17 15.4482 16.5513 15 16 15Z" fill="black"/>
</svg>
