<svg width="28" height="28" viewBox="0 0 28 28" fill="none" xmlns="http://www.w3.org/2000/svg">
<path d="M14 0C21.732 6.75952e-07 28 6.26801 28 14C28 21.732 21.732 28 14 28C6.26801 28 6.4705e-07 21.732 0 14C6.75952e-07 6.26801 6.26801 6.4705e-07 14 0ZM14 1.59961C7.15167 1.59961 1.59961 7.15167 1.59961 14C1.59961 20.8483 7.15167 26.4004 14 26.4004C20.8483 26.4004 26.4004 20.8483 26.4004 14C26.4004 7.15167 20.8483 1.59961 14 1.59961ZM13.8535 11.8232C14.4867 11.8235 15 12.3374 15 12.9707V19.8535C14.9998 20.4866 14.4866 20.9998 13.8535 21C13.2202 21 12.7063 20.4867 12.7061 19.8535V12.9707C12.7061 12.3373 13.2201 11.8232 13.8535 11.8232ZM13.8535 8C14.4867 8.00025 15 8.51411 15 9.14746C14.9998 9.78061 14.4866 10.2937 13.8535 10.2939C13.2202 10.2939 12.7063 9.78076 12.7061 9.14746C12.7061 8.51396 13.2201 8 13.8535 8Z" fill="black"/>
</svg>
