<svg width="22" height="22" viewBox="0 0 22 22" fill="none" xmlns="http://www.w3.org/2000/svg">
<path d="M21.2894 17.7027L8.84533 5.41012H19.0536C20.4922 5.41012 21.688 4.29728 21.7747 2.85914C21.8267 2.12296 21.5494 1.38677 21.0294 0.856031C20.5095 0.308171 19.7989 0 19.0363 0H3.10858C2.64063 0 1.2541 2.95936e-06 0.491511 1.12996C-0.0284364 1.90039 -0.011106 2.58522 0.00622559 3.20156V3.54397V19.2778C0.00622559 20.6988 1.16744 21.863 2.60596 21.863C3.29923 21.863 3.95783 21.5891 4.44311 21.1097C4.94573 20.6132 5.2057 19.9798 5.2057 19.2778V8.97121L17.6498 21.2638C18.1351 21.7432 18.7763 22 19.4523 22C20.1282 22 20.7695 21.7432 21.2547 21.2638C21.74 20.7844 22 20.151 22 19.4833C22 18.8156 21.74 18.1821 21.2547 17.7027H21.2894Z" fill="black"/>
</svg>
