<svg width="24" height="24" viewBox="0 0 24 24" fill="none" xmlns="http://www.w3.org/2000/svg">
<path d="M21.5352 2.46435C20.5908 1.52002 19.3359 1 18 1C16.6641 1 15.4092 1.52002 14.4648 2.46435L11.6357 5.29297C10.2377 6.69098 9.86005 8.71374 10.4674 10.4676C8.71314 9.86041 6.69025 10.239 5.29297 11.6362L2.46484 14.4644C0.515625 16.4141 0.515625 19.5859 2.46484 21.5356C3.40918 22.48 4.66406 23 6 23C7.33594 23 8.59082 22.48 9.53516 21.5356L12.3643 18.707C13.7623 17.309 14.14 15.2862 13.5326 13.5323C14.0635 13.7161 14.615 13.8257 15.1709 13.8257C16.4521 13.8257 17.7324 13.3384 18.707 12.3638L21.5352 9.53564C23.4844 7.58594 23.4844 4.41406 21.5352 2.46435ZM10.9502 17.293L8.12109 20.1216C6.98828 21.2544 5.01172 21.2544 3.87891 20.1216C2.70898 18.9517 2.70898 17.0483 3.87891 15.8784L6.70703 13.0503C7.29199 12.4658 8.06055 12.1733 8.8291 12.1733C9.26959 12.1733 9.70605 12.2811 10.1123 12.4736L8.29297 14.293C7.90234 14.6836 7.90234 15.3164 8.29297 15.707C8.48828 15.9023 8.74414 16 9 16C9.25586 16 9.51172 15.9023 9.70703 15.707L11.5265 13.8876C12.0547 15.0017 11.8702 16.3722 10.9502 17.293ZM20.1211 8.12158L17.293 10.9497C16.373 11.869 15.0024 12.0544 13.8878 11.5263L15.707 9.70703C16.0977 9.31641 16.0977 8.68359 15.707 8.29297C15.3164 7.90234 14.6836 7.90234 14.293 8.29297L12.4735 10.1124C11.9453 8.99829 12.1298 7.62781 13.0498 6.70703L15.8789 3.87842C16.4453 3.31201 17.1982 3 18 3C18.8018 3 19.5547 3.31201 20.1211 3.87842C21.291 5.04834 21.291 6.95166 20.1211 8.12158Z" fill="black"/>
</svg>
