<svg width="26" height="24" viewBox="0 0 26 24" fill="none" xmlns="http://www.w3.org/2000/svg">
<path d="M5.69159 24.0006H0.321472V7.79553H5.69159V24.0006ZM14.0353 10.0963C15.5616 8.26939 17.3786 7.17455 19.841 7.48987C23.0902 7.90624 24.6994 10.4955 24.9846 13.5719C25.1011 17.0428 25.0068 20.5261 25.0373 24.0006H19.6662L19.6682 14.9811C19.6564 12.7915 18.2412 11.0312 15.9133 11.8483C15.1605 12.1126 14.0353 13.3265 14.0353 14.1471V23.9215L13.9562 24.0006H8.66425V7.79553H13.9562L14.0353 7.87463V10.0963ZM3.26971 0.0045166C6.91598 0.20085 6.96906 5.39909 3.21698 5.60217C-0.810995 5.81947 -1.12285 0.366978 2.65741 0.0220947C2.85877 0.00363859 3.06796 -0.0064803 3.26971 0.0045166Z" fill="black"/>
</svg>
