<svg width="54" height="54" viewBox="0 0 54 54" fill="none" xmlns="http://www.w3.org/2000/svg">
<g clip-path="url(#clip0_1_765)">
<path d="M30.9025 4.23595C29.8673 4.13105 28.8364 4.53482 28.1435 5.31315L16.1796 18.8046L13.5945 20.2971C9.71576 22.5365 8.38187 27.5147 10.6213 31.3934C11.9836 33.753 14.3625 35.1538 16.8878 35.3983L23.2995 44.1968C24.7577 46.199 27.4762 46.7747 29.6217 45.5361C30.8171 44.8459 31.6623 43.6746 31.9393 42.3221C32.2168 40.9702 31.9022 39.5607 31.0753 38.4553L30.4158 37.5738L30.9087 37.2893C33.2319 35.948 34.4008 33.3792 34.0955 30.8704L41.9689 29.2595C42.3137 29.1887 42.6413 29.0627 42.9394 28.8906C43.524 28.5531 43.9985 28.0373 44.2813 27.4087C44.7083 26.4587 44.6526 25.3532 44.1318 24.4512L33.3891 5.84414C32.8683 4.94212 31.9387 4.34114 30.9025 4.23595ZM15.2191 23.111L16.626 22.2987L21.4999 30.7404L20.0929 31.5527C17.7654 32.8965 14.7789 32.0963 13.4352 29.7688C12.0914 27.4413 12.8916 24.4548 15.2191 23.111ZM28.7566 41.669C28.6646 42.1188 28.3942 42.4929 27.9971 42.7222C27.2936 43.1283 26.4034 42.9397 25.9247 42.2836L20.5415 34.8958C20.9395 34.744 21.337 34.5863 21.7175 34.3666L23.2826 33.463L28.4734 40.4027C28.7485 40.7696 28.8487 41.2192 28.7566 41.669ZM29.2841 34.4754L28.4556 34.9537L26.5551 32.4133L30.8906 31.5261C30.9374 32.6947 30.3655 33.851 29.2841 34.4754ZM41.3173 26.0762L24.5406 29.5088L19.2131 20.2811L30.5752 7.46874L41.3229 26.0748L41.3173 26.0762Z" fill="#DB0D15"/>
</g>
<defs>
<clipPath id="clip0_1_765">
<rect width="38.9905" height="38.9905" fill="white" transform="translate(0 19.4953) rotate(-30)"/>
</clipPath>
</defs>
</svg>
