<svg width="25" height="25" viewBox="0 0 25 25" fill="none" xmlns="http://www.w3.org/2000/svg">
<path d="M2.5 25C1.11817 25 0 23.8818 0 22.5C0 21.1182 1.11817 20 2.5 20H7.5C8.88183 20 10 21.1182 10 22.5C10 23.8818 8.88183 25 7.5 25H2.5ZM17.5 12.5C17.5 13.8818 16.3818 15 15 15H2.5C1.11817 15 0 13.8818 0 12.5C0 11.1182 1.11817 10 2.5 10H15C16.3818 10 17.5 11.1182 17.5 12.5ZM22.5 0C23.8818 0 25 1.11817 25 2.5C25 3.88183 23.8818 5 22.5 5H2.5C1.11817 5 0 3.88183 0 2.5C0 1.11817 1.11817 0 2.5 0H22.5Z" fill="black"/>
</svg>
