<svg width="24" height="24" viewBox="0 0 24 24" fill="none" xmlns="http://www.w3.org/2000/svg">
<path d="M17.3271 20.499C16.4395 22.042 14.7812 23 13 23H7C4.24316 23 2 20.7568 2 18V6C2 3.24316 4.24316 1 7 1H13C14.7812 1 16.4395 1.95801 17.3271 3.50098C17.6025 3.98047 17.4375 4.5918 16.959 4.86719C16.4795 5.1416 15.8682 4.97656 15.5928 4.49902C15.0615 3.57422 14.0674 3 13 3C13 3.55273 12.5522 4 12 4H8C7.44775 4 7 3.55273 7 3C5.3457 3 4 4.3457 4 6V18C4 19.6543 5.3457 21 7 21H13C14.0674 21 15.0615 20.4258 15.5928 19.501C15.8682 19.0234 16.4785 18.8584 16.959 19.1328C17.4375 19.4082 17.6025 20.0195 17.3271 20.499ZM18.5859 9H11C10.4478 9 10 9.44727 10 10C10 10.5527 10.4478 11 11 11H21C21.4043 11 21.7695 10.7568 21.9238 10.3828C22.0791 10.0088 21.9932 9.5791 21.707 9.29297L19.707 7.29297C19.3164 6.90234 18.6836 6.90234 18.293 7.29297C17.9023 7.68359 17.9023 8.31641 18.293 8.70703L18.5859 9ZM21 13H11C10.5957 13 10.231 13.2432 10.0762 13.6172C9.92139 13.9912 10.0068 14.4209 10.293 14.707L12.293 16.707C12.4883 16.9023 12.7441 17 13 17C13.2559 17 13.5117 16.9023 13.707 16.707C14.0977 16.3164 14.0977 15.6836 13.707 15.293L13.4141 15H21C21.5527 15 22 14.5527 22 14C22 13.4473 21.5527 13 21 13Z" fill="black"/>
</svg>
