<svg width="24" height="24" viewBox="0 0 24 24" fill="none" xmlns="http://www.w3.org/2000/svg">
<path d="M18 1H6C3.24316 1 1 3.24316 1 6V14C1 16.7568 3.24316 19 6 19H7.7196L7.2196 21H6C5.44727 21 5 21.4478 5 22C5 22.5522 5.44727 23 6 23H18C18.5527 23 19 22.5522 19 22C19 21.4478 18.5527 21 18 21H16.7804L16.2804 19H18C20.7568 19 23 16.7568 23 14V6C23 3.24316 20.7568 1 18 1ZM14.7188 21H9.28125L9.78125 19H14.2188L14.7188 21ZM21 14C21 15.6543 19.6543 17 18 17H6C4.3457 17 3 15.6543 3 14V6C3 4.3457 4.3457 3 6 3H18C19.6543 3 21 4.3457 21 6V14ZM15.5264 8.26807L11.4736 5.92773C10.8457 5.56543 10.0977 5.56592 9.47363 5.92822C8.84766 6.28955 8.47363 6.93701 8.47363 7.66016V12.3398C8.47363 13.063 8.84766 13.7104 9.47363 14.0718C9.78613 14.2529 10.1299 14.3433 10.4736 14.3433C10.8164 14.3433 11.1602 14.2529 11.4736 14.0723L15.5264 11.7319C16.1523 11.3706 16.5264 10.7231 16.5264 10C16.5264 9.27686 16.1523 8.6294 15.5264 8.26807ZM10.4736 12.3398V7.66016L14.5264 10L10.4736 12.3398Z" fill="black"/>
</svg>
