<svg width="20" height="28" viewBox="0 0 20 28" fill="none" xmlns="http://www.w3.org/2000/svg">
<path d="M17.2934 14.7083C18.7433 13.3582 19.4932 11.4082 19.2432 9.45819C19.2432 9.30819 19.0931 9.1582 18.9931 9.0582C18.8431 8.95821 18.6931 8.90821 18.5431 8.95822C18.5431 8.95822 18.4931 8.95822 18.4431 8.95822C17.6931 9.20825 16.9932 9.40828 16.2932 9.60831C13.2932 10.4584 10.7432 11.2085 10.9934 16.1085C10.7934 16.4585 10.5935 16.8585 10.3935 17.2085C10.3934 15.7085 10.4934 14.5085 10.5433 13.7085C10.6933 12.4585 11.0432 11.2585 11.6932 10.1585C13.3932 9.65843 14.8931 8.65837 15.9931 7.30832C17.143 5.95827 17.5429 4.10826 17.0929 2.35828C17.0429 2.20828 16.9429 2.05828 16.7929 2.00829C16.6429 1.9583 16.4929 1.9083 16.2929 2.00831C16.2929 2.00831 16.2429 2.00831 16.1929 2.00831C15.7929 2.20833 15.3929 2.40835 14.9929 2.60836C12.3429 3.90847 9.84298 5.15857 10.5932 9.50854C10.2932 10.1086 9.99321 10.7086 9.79323 11.3086C9.79322 11.0586 9.69321 10.8086 9.6432 10.5586C9.34315 9.30859 8.8431 8.10861 8.19306 7.00864C8.89289 2.90861 6.59285 1.7587 4.1428 0.5088C3.89279 0.35881 3.59278 0.208822 3.29278 0.0588346C2.99277 -0.0911533 2.59278 0.0588631 2.44279 0.358869C2.39279 0.458871 1.14291 3.20892 2.943 5.45885C4.09305 6.9088 5.79307 7.35873 7.04308 7.65868C7.64313 8.65866 8.04317 9.75864 8.34321 10.8586C8.69329 12.7586 8.89337 14.7586 8.94345 16.7086C8.89345 16.5586 8.79344 16.4086 8.74344 16.3086C8.84323 11.1586 5.94319 10.2587 2.59315 9.20886C2.04314 9.05889 1.44313 8.85891 0.843125 8.65893C0.493121 8.55895 0.143128 8.70896 0.0431419 9.05897C0.0431419 9.05897 0.0431439 9.10897 0.0431459 9.15897C-0.206765 11.359 0.643326 13.6089 2.24339 15.1089C3.99345 16.7088 6.09346 17.0087 7.79347 17.0587C8.59353 18.6086 8.9936 20.3086 8.99367 22.0586C8.44367 22.1586 7.94368 22.3586 7.49369 22.6587C6.29369 22.5087 5.14371 23.0088 4.44375 24.0088C3.34375 24.2088 2.49379 25.1589 2.49384 26.2589L2.49385 26.6089C2.49387 26.9589 2.79388 27.2089 3.09388 27.2088L16.0939 27.2083C16.4439 27.2083 16.6939 26.9083 16.6939 26.6083L16.6938 26.2583C16.6938 25.1583 15.8438 24.1583 14.7437 24.0084C14.0437 23.0584 12.8437 22.5084 11.6937 22.6585C11.2437 22.3585 10.7437 22.1585 10.2437 22.0586C10.3936 20.2085 10.9935 18.3585 11.9435 16.7585C13.0434 16.6084 15.4934 16.2083 17.1934 14.5583L17.2934 14.7083ZM14.4933 13.7584C14.7433 13.5584 14.7933 13.1584 14.5433 12.8584C14.4433 12.7084 14.2433 12.6584 14.0933 12.6584C13.9433 12.6584 13.7933 12.6584 13.6933 12.8084C13.1933 13.2584 12.6933 13.7585 12.2434 14.3085C12.5933 12.0085 14.0932 11.5584 16.5932 10.8583C17.0432 10.7083 17.4932 10.6083 17.9932 10.4582C17.9433 11.7582 17.3433 12.9583 16.3933 13.8083C15.3934 14.6583 14.1934 15.2584 12.9434 15.4584C13.3934 14.8584 13.9434 14.2584 14.4933 13.7584ZM11.7437 24.0585C12.5937 23.8585 13.4938 24.2584 13.9438 25.0084C14.0438 25.2084 14.2438 25.3084 14.4938 25.3084C14.9438 25.3084 15.3438 25.6083 15.4938 26.0583L3.84383 26.0588C3.99381 25.6088 4.3938 25.3088 4.8438 25.3088C5.0438 25.3088 5.2938 25.2088 5.39379 25.0087C5.84376 24.2587 6.74374 23.8587 7.59375 24.0587C7.79375 24.0587 7.99375 24.0586 8.14374 23.9086C9.04371 23.1586 10.3437 23.1585 11.2437 23.9085C11.3937 24.0585 11.5938 24.1085 11.7937 24.0585L11.7437 24.0585ZM14.293 6.60839C14.393 6.50839 14.493 6.30838 14.493 6.15838C14.493 6.00838 14.443 5.85838 14.293 5.70839C14.193 5.60839 13.993 5.5084 13.843 5.50841C13.693 5.50841 13.543 5.55842 13.393 5.70843C12.793 6.35845 12.1931 7.05847 11.6931 7.75849C11.843 5.60849 13.393 4.85843 15.5429 3.80834C15.6929 3.70833 15.8429 3.65833 15.9929 3.55832C16.043 4.65832 15.693 5.75833 14.993 6.55836C14.3931 7.25839 13.6431 7.90842 12.8431 8.30845C13.2931 7.70843 13.7931 7.10841 14.293 6.55839L14.293 6.60839ZM4.79292 3.60877C4.54293 3.85878 4.54295 4.20878 4.79296 4.45877C5.29298 5.00875 5.743 5.60874 6.14303 6.20872C5.29302 5.95875 4.543 5.45878 3.94297 4.75881C3.29293 3.85883 3.04288 2.65884 3.39284 1.55883L3.59284 1.65882C5.59288 2.65874 6.94291 3.35869 7.04299 5.30868C6.64297 4.7087 6.19294 4.15872 5.69292 3.60874C5.59292 3.50874 5.44291 3.40875 5.24291 3.40876C5.09291 3.40876 4.89291 3.45877 4.79292 3.55877L4.79292 3.60877ZM4.84328 12.5088C4.69328 12.5088 4.54329 12.6588 4.49329 12.8088C4.34331 13.1088 4.44332 13.4588 4.69333 13.6588C5.59335 14.2587 6.39338 15.0087 6.99342 15.8587C5.59341 15.7587 4.19339 15.2088 3.09335 14.2588C1.99331 13.2089 1.29325 11.7089 1.29319 10.1589C1.59319 10.2589 1.89319 10.3589 2.1932 10.4589L2.2932 10.4589C4.94323 11.2588 6.84325 11.8587 7.39336 14.3587C6.79333 13.6587 6.0933 13.0587 5.29328 12.5588C5.14328 12.4588 4.99328 12.4588 4.79328 12.5088L4.84328 12.5088Z" fill="black"/>
</svg>
