<svg width="24" height="24" viewBox="0 0 24 24" fill="none" xmlns="http://www.w3.org/2000/svg">
<path d="M18 22.5H13.5C12.2593 22.5 11.25 21.4907 11.25 20.25V3.75C11.25 2.50928 12.2593 1.5 13.5 1.5H18C19.2407 1.5 20.25 2.50928 20.25 3.75V20.25C20.25 21.4907 19.2407 22.5 18 22.5ZM13.5 3C13.0865 3 12.75 3.33618 12.75 3.75V20.25C12.75 20.6638 13.0865 21 13.5 21H18C18.4135 21 18.75 20.6638 18.75 20.25V18.75H18C17.5858 18.75 17.25 18.4146 17.25 18C17.25 17.5854 17.5858 17.25 18 17.25H18.75V15.75H16.5C16.0858 15.75 15.75 15.4146 15.75 15C15.75 14.5854 16.0858 14.25 16.5 14.25H18.75V12.75H18C17.5858 12.75 17.25 12.4146 17.25 12C17.25 11.5854 17.5858 11.25 18 11.25H18.75V9.75H16.5C16.0858 9.75 15.75 9.41455 15.75 9C15.75 8.58545 16.0858 8.25 16.5 8.25H18.75V6.75H18C17.5858 6.75 17.25 6.41455 17.25 6C17.25 5.58545 17.5858 5.25 18 5.25H18.75V3.75C18.75 3.33618 18.4135 3 18 3H13.5ZM6.75 22.5H6.74744H6.74048C6.55261 22.4978 6.36511 22.4253 6.22119 22.2817L6.21973 22.2803L3.96973 20.0303C3.8291 19.8896 3.75 19.6992 3.75 19.5V3.75C3.75 2.50928 4.75928 1.5 6 1.5H7.5C8.74072 1.5 9.75 2.50928 9.75 3.75V19.5C9.75 19.6992 9.6709 19.8896 9.53027 20.0303L7.28027 22.2803C7.13672 22.4238 6.94995 22.4971 6.76172 22.5H6.75ZM5.25 19.1895L6.75 20.6895L8.25 19.1887V18H5.25V19.1895ZM5.25 16.5H8.25V6H5.25V16.5ZM5.25 4.5H8.25V3.75C8.25 3.33618 7.91345 3 7.5 3H6C5.58655 3 5.25 3.33618 5.25 3.75V4.5Z" fill="black"/>
</svg>
