<svg width="21" height="21" viewBox="0 0 21 21" fill="none" xmlns="http://www.w3.org/2000/svg">
<path d="M5.98014 0.040177C7.2445 0.215861 8.32021 0.944878 8.93115 2.04003L9.70985 3.43542C10.6034 5.03638 10.2675 7.11831 8.89479 8.50831C8.86922 8.54251 8.75582 8.71351 8.7695 9.01808C8.79542 9.57213 9.22024 10.2878 9.96582 11.0334C10.7114 11.779 11.4275 12.2038 11.9815 12.2297C12.2854 12.2438 12.4564 12.1304 12.4909 12.1048C13.8809 10.7321 15.9629 10.3962 17.5638 11.2894L18.9592 12.0681C20.0548 12.6797 20.7838 13.7554 20.9595 15.0198C21.1524 16.4073 20.6488 17.8541 19.6119 18.8906C18.2734 20.2295 16.8611 20.9362 15.4149 20.9913C13.8215 21.0517 12.2162 20.7983 10.6434 20.2385C8.50561 19.4774 6.49423 18.1641 4.66502 16.3349C2.83581 14.5057 1.52249 12.4943 0.761423 10.3566C0.255607 8.93528 -5.90642e-07 7.48768 -6.53635e-07 6.04657C-6.60355e-07 5.89284 0.00287943 5.73912 0.00863962 5.58539C0.0633614 4.13924 0.770063 2.72692 2.10894 1.38769C3.14577 0.351226 4.59266 -0.152427 5.98014 0.0405375L5.98014 0.040177ZM12.4866 12.1095C12.4776 12.1178 12.4726 12.1232 12.4708 12.1253C12.4762 12.1199 12.4812 12.1149 12.4866 12.1095ZM3.38194 2.66032C2.12658 3.91567 1.83281 4.98058 1.80725 5.65308C1.75577 7.01679 1.9743 8.39598 2.45707 9.7525C3.12777 11.6368 4.29889 13.4231 5.93766 15.0615C7.57643 16.7003 9.3628 17.8714 11.2471 18.5421C12.6036 19.0252 13.9828 19.2438 15.3465 19.1919C16.5648 19.1458 17.6466 18.3103 18.3393 17.6173C18.8916 17.065 19.2005 16.3353 19.2005 15.6109C19.2005 15.4957 19.1925 15.3809 19.1767 15.2668C19.0777 14.5561 18.6892 13.9779 18.0823 13.6395L16.6869 12.8608C15.7775 12.3532 14.5668 12.5739 13.7413 13.3997C13.6437 13.4969 13.1084 13.9833 12.1702 14.0272C11.0581 14.0798 9.88805 13.5005 8.69318 12.3057C7.5487 11.1609 6.96837 10.0373 6.96837 8.96444C6.96837 8.95544 6.96837 8.94644 6.96837 8.93744C6.97737 7.93337 7.4983 7.35916 7.60127 7.25548C8.42497 6.43178 8.64566 5.22143 8.13804 4.31204L7.35934 2.91665C7.02057 2.31003 6.44275 1.92122 5.73209 1.82222C4.90047 1.70666 4.02168 2.01951 3.38158 2.6596L3.38194 2.66032Z" fill="black"/>
</svg>
