<svg width="24" height="24" viewBox="0 0 24 24" fill="none" xmlns="http://www.w3.org/2000/svg">
<path d="M16.9238 13H11V7.07621C11 6.4932 10.7471 5.93949 10.3061 5.55619C9.87255 5.17923 9.29784 5.00833 8.73632 5.08841C6.30956 5.42972 4.09764 6.77494 2.66845 8.77933C1.2202 10.8091 0.689929 13.3013 1.17479 15.7959C1.85839 19.3164 4.68358 22.1416 8.20409 22.8252C8.80712 22.9424 9.40917 23.0005 10.0054 23.0005C11.876 23.0005 13.6807 22.4302 15.2207 21.3321C17.2246 19.9029 18.5703 17.691 18.9121 15.2642V15.2627C18.9912 14.6983 18.8193 14.1265 18.4424 13.6929C18.0596 13.2525 17.5058 13 16.9238 13ZM3.13768 15.4141C2.75878 13.4634 3.1704 11.5196 4.29637 9.94046C5.40917 8.38089 7.12889 7.33402 8.99999 7.0762V13.586L4.38146 18.2045C3.77196 17.3902 3.33715 16.4406 3.13768 15.4141ZM14.0596 19.7036C12.4805 20.8296 10.5381 21.2422 8.58592 20.8623C7.55944 20.6629 6.60979 20.2281 5.79552 19.6186L10.4136 15.0005L16.9287 15.0069C16.6582 16.8848 15.6133 18.5957 14.0596 19.7036ZM22.9101 8.72269C22.3506 4.78812 19.2119 1.64945 15.2773 1.08988C14.7129 1.01175 14.1328 1.18021 13.6943 1.55912C13.2529 1.94242 13 2.49613 13 3.07865V10C13 10.5523 13.4473 11 14 11H20.9209C21.5039 11 22.0576 10.7471 22.4404 10.3062C22.8193 9.86917 22.9902 9.29203 22.9101 8.72269ZM20.9209 9.00003H14.999L14.9961 3.07035C18.0547 3.5054 20.4951 5.94534 20.9316 8.99271C20.9316 8.99271 20.9267 9.00003 20.9209 9.00003Z" fill="black"/>
</svg>
