<svg width="24" height="24" viewBox="0 0 24 24" fill="none" xmlns="http://www.w3.org/2000/svg">
<path d="M22 1H2C1.44775 1 1 1.44775 1 2C1 2.55225 1.44775 3 2 3V12C2 14.7568 4.24316 17 7 17H7.13153L4.16797 21.4453C3.86182 21.9048 3.98584 22.5259 4.44531 22.832C4.61572 22.9458 4.80859 23 4.99902 23C5.32227 23 5.63916 22.8438 5.83203 22.5547L9.53516 17H11V21C11 21.5522 11.4478 22 12 22C12.5522 22 13 21.5522 13 21V17H14.4648L18.168 22.5547C18.3608 22.8438 18.6777 23 19.001 23C19.1914 23 19.3843 22.9458 19.5547 22.832C20.0142 22.5259 20.1382 21.9048 19.832 21.4453L16.8685 17H17C19.7568 17 22 14.7568 22 12V3C22.5522 3 23 2.55225 23 2C23 1.44775 22.5522 1 22 1ZM20 12C20 13.6543 18.6543 15 17 15H7C5.3457 15 4 13.6543 4 12V3H20V12ZM6 7C6 6.44775 6.44775 6 7 6H12C12.5522 6 13 6.44775 13 7C13 7.55225 12.5522 8 12 8H7C6.44775 8 6 7.55225 6 7ZM6 11C6 10.4478 6.44775 10 7 10H17C17.5522 10 18 10.4478 18 11C18 11.5522 17.5522 12 17 12H7C6.44775 12 6 11.5522 6 11Z" fill="black"/>
</svg>
