<svg width="22" height="22" viewBox="0 0 22 22" fill="none" xmlns="http://www.w3.org/2000/svg">
<path d="M4.29727 21.2894L16.5899 8.84533V19.0536C16.5899 20.4922 17.7027 21.688 19.1409 21.7747C19.877 21.8267 20.6132 21.5494 21.144 21.0294C21.6918 20.5095 22 19.7989 22 19.0363V3.10858C22 2.64063 22 1.2541 20.87 0.491511C20.0996 -0.0284365 19.4148 -0.0111061 18.7984 0.00622545L18.456 0.00622543L2.72218 0.00622474C1.30117 0.00622468 0.136961 1.16744 0.136961 2.60596C0.136961 3.29922 0.410894 3.95783 0.890272 4.44311C1.38677 4.94573 2.02023 5.2057 2.72218 5.2057L13.0288 5.2057L0.736187 17.6498C0.256809 18.1351 0 18.7763 0 19.4523C0 20.1282 0.256809 20.7695 0.736187 21.2547C1.21556 21.74 1.84903 22 2.51673 22C3.18444 22 3.8179 21.74 4.29727 21.2547V21.2894Z" fill="black"/>
</svg>
