<svg width="32" height="32" viewBox="0 0 32 32" fill="none" xmlns="http://www.w3.org/2000/svg">
<path d="M24 30H12C11.4473 30 11 29.5522 11 29C11 28.4478 11.4473 28 12 28H24C24.5518 28 25 27.5513 25 27V24C25 23.4478 25.4473 23 26 23C26.5527 23 27 23.4478 27 24V27C27 28.6543 25.6543 30 24 30ZM6 30C5.80664 30 5.61328 29.9438 5.44531 29.832C5.30469 29.7383 2 27.4951 2 24C2 21.7944 3.79395 20 6 20C8.20605 20 10 21.7944 10 24C10 27.4951 6.69531 29.7383 6.55469 29.832C6.38672 29.9438 6.19336 30 6 30ZM6 22C4.89746 22 4 22.897 4 24C4 25.6958 5.24805 27.0571 6 27.7236C6.75195 27.0576 8 25.6963 8 24C8 22.897 7.10254 22 6 22ZM26 21C25.8066 21 25.6133 20.9438 25.4453 20.832C25.3047 20.7383 22 18.4951 22 15C22 12.7944 23.7939 11 26 11C28.2061 11 30 12.7944 30 15C30 18.4951 26.6953 20.7383 26.5547 20.832C26.3867 20.9438 26.1934 21 26 21ZM26 13C24.8975 13 24 13.897 24 15C24 16.6958 25.248 18.0571 26 18.7236C26.752 18.0576 28 16.6963 28 15C28 13.897 27.1025 13 26 13ZM19 18H8C6.3457 18 5 16.6543 5 15C5 14.4478 5.44727 14 6 14C6.55273 14 7 14.4478 7 15C7 15.5513 7.44824 16 8 16H19C19.5527 16 20 16.4478 20 17C20 17.5522 19.5527 18 19 18ZM6 12C5.80664 12 5.61328 11.9438 5.44531 11.832C5.30469 11.7383 2 9.49512 2 6C2 3.79443 3.79395 2 6 2C8.20605 2 10 3.79443 10 6C10 9.49512 6.69531 11.7383 6.55469 11.832C6.38672 11.9438 6.19336 12 6 12ZM6 4C4.89746 4 4 4.89697 4 6C4 7.6958 5.24805 9.05713 6 9.72363C6.75195 9.05762 8 7.69629 8 6C8 4.89697 7.10254 4 6 4Z" fill="black"/>
</svg>
