<svg width="24" height="24" viewBox="0 0 24 24" fill="none" xmlns="http://www.w3.org/2000/svg">
<path d="M22.707 21.293L20.1708 18.7567C20.7093 17.946 21 16.9959 21 16C21 14.6641 20.4795 13.4082 19.5352 12.4648C18.5918 11.5205 17.3359 11 16 11C14.6641 11 13.4082 11.5205 12.4648 12.4648C11.5205 13.4082 11 14.6641 11 16C11 17.3359 11.5205 18.5918 12.4648 19.5352C13.4082 20.4795 14.6641 21 16 21C16.9959 21 17.946 20.7093 18.7567 20.1708L21.293 22.707C21.4883 22.9023 21.7441 23 22 23C22.2559 23 22.5117 22.9023 22.707 22.707C23.0977 22.3164 23.0977 21.6836 22.707 21.293ZM13.8789 18.1211C13.3125 17.5547 13 16.8018 13 16C13 15.1982 13.3125 14.4453 13.8789 13.8789C14.4453 13.3125 15.1982 13 16 13C16.8018 13 17.5547 13.3125 18.1211 13.8789C18.6875 14.4453 19 15.1982 19 16C19 16.8018 18.6875 17.5547 18.1211 18.1211C16.9883 19.2539 15.0117 19.2539 13.8789 18.1211ZM10 22C10 22.5527 9.55273 23 9 23H6C3.24316 23 1 20.7568 1 18V6C1 3.24316 3.24316 1 6 1H14C16.7568 1 19 3.24316 19 6V8C19 8.55273 18.5527 9 18 9C17.4473 9 17 8.55273 17 8V6C17 4.3457 15.6543 3 14 3H6C4.3457 3 3 4.3457 3 6V18C3 19.6543 4.3457 21 6 21H9C9.55273 21 10 21.4473 10 22ZM6 17C5.44727 17 5 16.5527 5 16C5 15.4473 5.44727 15 6 15H8C8.55273 15 9 15.4473 9 16C9 16.5527 8.55273 17 8 17H6ZM10 12C10 12.5527 9.55273 13 9 13H6C5.44727 13 5 12.5527 5 12C5 11.4473 5.44727 11 6 11H9C9.55273 11 10 11.4473 10 12ZM14 7C14.5527 7 15 7.44727 15 8C15 8.55273 14.5527 9 14 9H6C5.44727 9 5 8.55273 5 8C5 7.44727 5.44727 7 6 7H14Z" fill="black"/>
</svg>
