<svg width="24" height="24" viewBox="0 0 24 24" fill="none" xmlns="http://www.w3.org/2000/svg">
<path d="M16 23H8C5.24316 23 3 20.7568 3 18V6C3 3.24316 5.24316 1 8 1H16C18.7568 1 21 3.24316 21 6V18C21 20.7568 18.7568 23 16 23ZM8 3C6.3457 3 5 4.3457 5 6V18C5 19.6543 6.3457 21 8 21H16C17.6543 21 19 19.6543 19 18V6C19 4.3457 17.6543 3 16 3H8ZM17 7C17 6.44727 16.5522 6 16 6H12C11.4478 6 11 6.44727 11 7C11 7.55273 11.4478 8 12 8H16C16.5522 8 17 7.55273 17 7ZM17 12C17 11.4473 16.5522 11 16 11H12C11.4478 11 11 11.4473 11 12C11 12.5527 11.4478 13 12 13H16C16.5522 13 17 12.5527 17 12ZM17 17C17 16.4473 16.5522 16 16 16H12C11.4478 16 11 16.4473 11 17C11 17.5527 11.4478 18 12 18H16C16.5522 18 17 17.5527 17 17ZM8.5 8.5C9.32715 8.5 10 7.82715 10 7C10 6.17285 9.32715 5.5 8.5 5.5C7.67285 5.5 7 6.17285 7 7C7 7.82715 7.67285 8.5 8.5 8.5ZM8.5 10.5C7.67285 10.5 7 11.1729 7 12C7 12.8271 7.67285 13.5 8.5 13.5C9.32715 13.5 10 12.8271 10 12C10 11.1729 9.32715 10.5 8.5 10.5ZM8.5 15.5C7.67285 15.5 7 16.1729 7 17C7 17.8271 7.67285 18.5 8.5 18.5C9.32715 18.5 10 17.8271 10 17C10 16.1729 9.32715 15.5 8.5 15.5Z" fill="black"/>
</svg>
