<svg width="32" height="32" viewBox="0 0 32 32" fill="none" xmlns="http://www.w3.org/2000/svg">
<path d="M26 30H6C5.44775 30 5 29.5527 5 29C5 28.4472 5.44775 28 6 28H7V27C7 25.3457 8.3457 24 10 24H11V22C11 21.2607 11.4028 20.6142 12 20.2685V20.2109C12 17.6767 11.2637 15.0048 9.81152 12.2695C9.09961 10.9277 8.84912 9.41208 9.08691 7.88376C9.55713 4.86129 12.1099 2.40719 15.1572 2.04977C17.1572 1.81735 19.1597 2.44137 20.6509 3.76852C22.144 5.09665 23 7.0029 23 8.99997C23 10.25 22.6655 11.4765 22.0327 12.5468C20.7676 14.6894 20.0698 17.3515 20.0049 20.2715C20.5996 20.6181 21 21.2636 21 22V24H22C23.6543 24 25 25.3457 25 27V28H26C26.5522 28 27 28.4472 27 29C27 29.5527 26.5522 30 26 30ZM9 28H23V27C23 26.4482 22.5513 26 22 26H10C9.44873 26 9 26.4482 9 27V28ZM13 24H19V22H13V24ZM13.9985 20H18.0117C18.1152 16.8252 18.9048 13.9101 20.311 11.5293C20.7617 10.7666 21 9.89254 21 8.99997C21 7.57418 20.3882 6.21188 19.3218 5.26266C18.2407 4.30075 16.8452 3.86325 15.3906 4.0361C13.2178 4.29098 11.3979 6.03903 11.0635 8.19137C10.8921 9.28903 11.0703 10.375 11.5781 11.332C13.1455 14.2851 13.9595 17.2002 13.9985 20Z" fill="black"/>
</svg>
