<svg width="32" height="32" viewBox="0 0 32 32" fill="none" xmlns="http://www.w3.org/2000/svg">
<path d="M28 20H13.7808L13.2809 18H25C26.1025 18 27 17.1025 27 16V14.1578L29.1836 13.7529C29.709 13.6543 30.0645 13.1601 29.9902 12.6299L29.4199 8.58006C29.1943 6.97557 27.7402 5.8496 26.1357 6.01561L5.23975 8.21483C4.44141 8.29491 3.72266 8.68358 3.2168 9.3076C2.70996 9.93358 2.47852 10.7187 2.56543 11.5137L2.72669 13.0649C2.28003 13.5888 2 14.2591 2 15V23C2 24.6543 3.3457 26 5 26H27C28.6543 26 30 24.6543 30 23V22C30 20.8974 29.1025 20 28 20ZM4 15C4 14.4482 4.44873 14 5 14H9.43848C9.89795 14 10.2974 14.3115 10.4087 14.7568L11.7192 20H4L4 15ZM25 16H17.0634L25 14.5286V16ZM4.77051 10.5674C4.93848 10.3603 5.17578 10.2314 5.44433 10.2041L26.3418 8.00487C26.876 7.94139 27.3652 8.33397 27.4395 8.85936L27.876 11.9619L12.4849 14.8146L12.3491 14.2715C12.0142 12.9346 10.8174 12 9.43847 12H5C4.87353 12 4.75305 12.0221 4.63067 12.0373L4.5542 11.3017C4.52539 11.0361 4.60205 10.7754 4.77051 10.5674ZM28 23C28 23.5517 27.5518 24 27 24H5C4.44873 24 4 23.5517 4 23V22H28V23Z" fill="black"/>
</svg>
