<svg width="24" height="24" viewBox="0 0 24 24" fill="none" xmlns="http://www.w3.org/2000/svg">
<path d="M22 21V11C22 9.89697 21.103 9 20 9H18C16.897 9 16 9.89697 16 11V21H15V15C15 13.897 14.103 13 13 13H11C9.89697 13 9 13.897 9 15V21H8V17C8 15.897 7.10303 15 6 15H4C2.89697 15 2 15.897 2 17V21C1.44775 21 1 21.4478 1 22C1 22.5522 1.44775 23 2 23H22C22.5522 23 23 22.5522 23 22C23 21.4478 22.5522 21 22 21ZM4 21V17H6V21H4ZM11 21V15H13V21H11ZM18 21V11H20V21H18ZM3.02783 12.2339C2.89844 11.6968 3.22949 11.1567 3.76611 11.0278C10.7884 9.3396 15.5612 5.26868 17.7778 3H16C15.4478 3 15 2.55225 15 2C15 1.44775 15.4478 1 16 1H20C20.5522 1 21 1.44775 21 2V6C21 6.55225 20.5522 7 20 7C19.4478 7 19 6.55225 19 6V4.62311C16.5361 7.10828 11.563 11.2103 4.23389 12.9722C4.15527 12.9912 4.07666 13 3.99902 13C3.54736 13 3.1377 12.6924 3.02783 12.2339Z" fill="black"/>
</svg>
