<svg width="32" height="32" viewBox="0 0 32 32" fill="none" xmlns="http://www.w3.org/2000/svg">
<path d="M26.707 7.12109L25.293 5.70703C23.3223 3.73779 20.462 3.1972 17.9955 4.07166L16.8115 2.8877C16.2451 2.31348 15.4902 1.99805 14.6856 1.99707C13.8809 1.99707 13.125 2.31348 12.5615 2.88281C11.5482 3.89874 11.4183 5.46655 12.1686 6.62634L5.25587 14.332C4.94532 14.6787 4.91407 15.1924 5.18067 15.5732L11.0794 24H11C9.34571 24 8.00001 25.3457 8.00001 27V29C8.00001 29.5527 8.44727 30 9.00001 30H23C23.5527 30 24 29.5527 24 29V27C24 25.3457 22.6543 24 21 24H20V23C20 22.4473 19.5527 22 19 22C18.4473 22 18 22.4473 18 23V24H13.5206L7.27442 15.0771L13.539 8.09369L13.7574 8.31207C12.8843 10.7782 13.4244 13.6373 15.3936 15.6064L16.8076 17.0205C17.0029 17.2158 17.2588 17.3135 17.5147 17.3135C17.7705 17.3135 18.0264 17.2158 18.2217 17.0205L20.4731 14.7691C20.8792 14.9617 21.3157 15.0693 21.7568 15.0693C22.5254 15.0693 23.294 14.7773 23.8799 14.1924C24.7991 13.2708 24.9834 11.9006 24.4552 10.787L26.707 8.53516C27.0977 8.14453 27.0977 7.51172 26.707 7.12109ZM22 27V28H10V27C10 26.4482 10.4483 26 11 26H21C21.5518 26 22 26.4482 22 27ZM13.9815 4.29297C14.169 4.10254 14.419 3.99707 14.6846 3.99707C14.9502 3.99707 15.2002 4.10254 15.3926 4.29688L16.1542 5.05853C15.8903 5.25617 15.6334 5.46722 15.3936 5.70703C15.1532 5.94745 14.9418 6.20514 14.7438 6.46979L13.9775 5.70313C13.5899 5.31543 13.5899 4.68457 13.9815 4.29297ZM17.5147 14.8994L16.8076 14.1924C14.8584 12.2432 14.8584 9.07129 16.8076 7.12109C17.7822 6.14648 19.0625 5.65918 20.3428 5.65918C21.6231 5.65918 22.9043 6.14648 23.8789 7.12109L24.5859 7.82812L17.5147 14.8994Z" fill="black"/>
</svg>
