<svg width="32" height="32" viewBox="0 0 32 32" fill="none" xmlns="http://www.w3.org/2000/svg">
<path d="M16 4C8.14941 4 2 7.51367 2 12V20C2 24.4863 8.14941 28 16 28H23C24.4206 28 25.6075 27.005 25.9162 25.6771C28.5451 24.1926 30 22.1955 30 20V12C30 7.51367 23.8506 4 16 4ZM16 6C22.5049 6 28 8.74805 28 12C28 15.252 22.5049 18 16 18C9.49512 18 4 15.252 4 12C4 8.74805 9.49512 6 16 6ZM24 25C24 25.5518 23.5513 26 23 26H16C9.49512 26 4 23.252 4 20V16.161C6.42676 18.4761 10.8391 20 16 20H23C23.5513 20 24 20.4482 24 21V25ZM26 23.2537V21C26 19.8824 25.3786 18.9171 24.47 18.4009C25.8871 17.793 27.0843 17.0347 28 16.161V20C28 21.1387 27.287 22.2784 26 23.2537Z" fill="black"/>
<path d="M16 16C19.9907 16 23 14.2803 23 12C23 9.71973 19.9907 8 16 8C12.0093 8 9 9.71973 9 12C9 14.2803 12.0093 16 16 16ZM16 10C19.0522 10 21 11.1846 21 12C21 12.8154 19.0522 14 16 14C12.9478 14 11 12.8154 11 12C11 11.1846 12.9478 10 16 10Z" fill="black"/>
</svg>
