<svg width="32" height="32" viewBox="0 0 32 32" fill="none" xmlns="http://www.w3.org/2000/svg">
<path d="M13 30C6.93457 30 2 25.0654 2 19C2 12.9345 6.93457 7.99996 13 7.99996C15.6729 7.99996 18.127 8.95846 20.0352 10.5503L21.2354 9.35006L20.9346 6.64596C20.9014 6.3442 21.0068 6.04342 21.2217 5.82858L24.7578 2.29293C25.0293 2.02047 25.4326 1.92965 25.7959 2.05612C26.1582 2.18356 26.416 2.50729 26.459 2.88961L26.7236 5.27633L29.1104 5.54196C29.4922 5.58395 29.8164 5.84176 29.9434 6.20455C30.0713 6.56735 29.9785 6.97067 29.707 7.24264L26.1719 10.7783C25.957 10.9931 25.6533 11.0981 25.3545 11.0649L22.6494 10.7641L21.4492 11.9643C23.041 13.8725 24 16.3261 24 19C24 25.0654 19.0654 30 13 30ZM13 9.99996C8.03711 9.99996 4 14.0376 4 19C4 23.9624 8.03711 28 13 28C17.9629 28 22 23.9624 22 19C22 16.8784 21.2617 14.9253 20.0293 13.3852L18.6045 14.81C19.4805 15.979 20 17.4301 20 19C20 22.8598 16.8594 26 13 26C9.14062 26 6 22.8598 6 19C6 15.1401 9.14062 12 13 12C14.5703 12 16.0215 12.5195 17.1904 13.396L18.6152 11.9707C17.0742 10.7382 15.1221 9.99996 13 9.99996ZM13 14C10.2432 14 8 16.2431 8 19C8 21.7568 10.2432 24 13 24C15.7568 24 18 21.7568 18 19C18 17.9824 17.6943 17.0346 17.1699 16.2441L15.707 17.7075C15.8945 18.0991 16 18.5376 16 19C16 20.6543 14.6543 22 13 22C11.3457 22 10 20.6543 10 19C10 17.3457 11.3457 16 13 16C13.4629 16 13.9014 16.1054 14.293 16.2929L15.7559 14.83C14.9658 14.3056 14.0176 14 13 14ZM13 18C12.4482 18 12 18.4487 12 19C12 19.5512 12.4482 20 13 20C13.5518 20 14 19.5512 14 19C14 18.7744 13.9248 18.5664 13.7988 18.3989C13.7617 18.3715 13.7266 18.3408 13.6934 18.3071C13.6602 18.2734 13.6289 18.2382 13.6016 18.2011C13.4336 18.0752 13.2256 18 13 18ZM23.1875 8.81198L25.0977 9.02438L26.8223 7.29977L25.708 7.17575C25.2432 7.12448 24.876 6.75729 24.8242 6.29244L24.7002 5.17819L22.9756 6.9028L23.1875 8.81198Z" fill="black"/>
</svg>
