<svg width="24" height="24" viewBox="0 0 24 24" fill="none" xmlns="http://www.w3.org/2000/svg">
<path d="M21 4H19C19 2.3457 17.6543 1 16 1H8C6.3457 1 5 2.3457 5 4H3C1.89746 4 1 4.89697 1 6V8C1 10.5089 2.86383 12.5724 5.27594 12.9268C5.82092 14.8252 7.14764 16.3912 8.88538 17.2596C8.78101 18.3923 8.59412 19.7579 8.25659 21H7C6.44727 21 6 21.4478 6 22C6 22.5522 6.44727 23 7 23H17C17.5527 23 18 22.5522 18 22C18 21.4478 17.5527 21 17 21H15.7434C15.4059 19.7579 15.219 18.3923 15.1146 17.2596C16.8524 16.3912 18.1791 14.8252 18.7241 12.9268C21.1361 12.5724 23 10.5089 23 8V6C23 4.89697 22.1025 4 21 4ZM3 8V6H5V10.8286C3.83594 10.416 3 9.30371 3 8ZM13.6797 21H10.3203C10.571 19.9429 10.7283 18.858 10.8298 17.894C11.2112 17.9587 11.6005 18 12 18C12.3995 18 12.7889 17.9587 13.1703 17.894C13.272 18.8585 13.4291 19.9431 13.6797 21ZM17 11C17 13.7568 14.7568 16 12 16C9.24316 16 7 13.7568 7 11V4C7 3.44873 7.44824 3 8 3H16C16.5518 3 17 3.44873 17 4V11ZM21 8C21 9.30371 20.1641 10.416 19 10.8286V6H21V8Z" fill="black"/>
</svg>
