<svg width="24" height="24" viewBox="0 0 24 24" fill="none" xmlns="http://www.w3.org/2000/svg">
<path d="M12 23C5.93457 23 1 18.0654 1 12C1 5.93457 5.93457 1 12 1C18.0654 1 23 5.93457 23 12C23 18.0654 18.0654 23 12 23ZM12 3C7.0376 3 3 7.0376 3 12C3 16.9624 7.0376 21 12 21C16.9624 21 21 16.9624 21 12C21 7.0376 16.9624 3 12 3ZM17.9238 10.3828C18.0786 10.0088 17.9932 9.5791 17.707 9.29297L15.707 7.29297C15.3164 6.90234 14.6836 6.90234 14.293 7.29297C13.9023 7.68359 13.9023 8.31641 14.293 8.70703L14.5859 9H7C6.44775 9 6 9.44775 6 10C6 10.5522 6.44775 11 7 11H17C17.4043 11 17.769 10.7563 17.9238 10.3828ZM9.70703 16.707C10.0977 16.3164 10.0977 15.6836 9.70703 15.293L9.41406 15H17C17.5522 15 18 14.5522 18 14C18 13.4478 17.5522 13 17 13H7C6.5957 13 6.23096 13.2437 6.07617 13.6172C5.92139 13.9912 6.00684 14.4209 6.29297 14.707L8.29297 16.707C8.48828 16.9023 8.74414 17 9 17C9.25586 17 9.51172 16.9023 9.70703 16.707Z" fill="black"/>
</svg>
