<svg width="24" height="24" viewBox="0 0 24 24" fill="none" xmlns="http://www.w3.org/2000/svg">
<path d="M23.3215 10.1599L13.9468 0.895095C13.6727 0.624278 12.8506 -0.18817 11.7257 0.0398853C10.9613 0.196674 10.5574 0.610025 10.2113 0.980616L0.6346 10.4449C0.230763 10.844 0 11.3857 0 11.9558C0 12.5259 0.230763 13.0676 0.6346 13.4809C1.03844 13.8943 1.5865 14.1081 2.17783 14.1081C2.75474 14.1081 3.3028 13.88 3.72106 13.4809L9.86514 7.40894V21.8905C9.86514 23.045 10.817 24 11.9997 24C13.1824 24 14.1198 23.0593 14.1198 21.8905V7.40894L20.1197 13.3384C20.9706 14.1793 22.3408 14.2079 23.235 13.4239C23.6965 13.0106 23.985 12.4262 23.9994 11.8133C24.0138 11.2004 23.7686 10.5875 23.336 10.1599H23.3215Z" fill="black"/>
</svg>
