<svg width="24" height="24" viewBox="0 0 24 24" fill="none" xmlns="http://www.w3.org/2000/svg">
<path d="M22.4766 14.7795C23.3145 14.7797 24 15.4695 24 16.3118C23.9999 20.5541 20.5638 24.0002 16.3506 24.0002H7.64941C3.4286 24.0002 0.000149525 20.5465 0 16.3118C0 15.4695 0.685511 14.7797 1.52344 14.7795C2.36153 14.7795 3.04785 15.4694 3.04785 16.3118C3.048 18.8617 5.11241 20.9367 7.64941 20.9368H16.3506C18.8876 20.9367 20.952 18.8617 20.9521 16.3118C20.9521 15.4694 21.6385 14.7795 22.4766 14.7795ZM12.1045 0.000244141C12.8053 0.000356067 13.3086 0.505926 13.499 0.689697V0.696533L20.6455 7.78833C20.973 8.10996 21.1561 8.58498 21.1484 9.052C21.1407 9.51891 20.9196 9.97052 20.5693 10.2844C19.8836 10.8817 18.839 10.8593 18.1914 10.2161L13.6201 5.67505V16.7629C13.6201 17.6588 12.8815 18.379 11.9902 18.3792C11.0988 18.3792 10.375 17.6436 10.375 16.7629V5.67505L5.68945 10.3225C5.06469 10.9428 3.97437 10.9428 3.34961 10.3225C2.70253 9.67169 2.70252 8.63853 3.34961 7.99536L10.6494 0.750244C10.9159 0.467053 11.2281 0.153064 11.8066 0.0305176C11.9057 -0.000114346 12.0054 0.000244132 12.1045 0.000244141Z" fill="black"/>
</svg>
