<svg width="28" height="28" viewBox="0 0 28 28" fill="none" xmlns="http://www.w3.org/2000/svg">
<path d="M14 0C21.732 0 28 6.26801 28 14C28 21.732 21.732 28 14 28C6.26801 28 0 21.732 0 14C0 6.26801 6.26801 0 14 0ZM14 1.59961C7.15167 1.59961 1.59961 7.15167 1.59961 14C1.59961 20.8483 7.15167 26.4004 14 26.4004C20.8483 26.4004 26.4004 20.8483 26.4004 14C26.4004 7.15167 20.8483 1.59961 14 1.59961ZM14.1465 17.7061C14.7798 17.7061 15.2937 18.2192 15.2939 18.8525C15.2939 19.486 14.7799 20 14.1465 20C13.5133 19.9998 13 19.4859 13 18.8525C13.0002 18.2194 13.5134 17.7063 14.1465 17.7061ZM14.1465 7C14.7798 7 15.2937 7.51326 15.2939 8.14648V15.0293C15.2939 15.6627 14.7799 16.1768 14.1465 16.1768C13.5133 16.1765 13 15.6626 13 15.0293V8.14648C13.0002 7.51341 13.5134 7.00025 14.1465 7Z" fill="black"/>
</svg>
