<svg width="24" height="24" viewBox="0 0 24 24" fill="none" xmlns="http://www.w3.org/2000/svg">
<path d="M12.35 1.65002C6.65 1.65002 2 6.30002 2 12C2 17.7 6.65 22.35 12.35 22.35C18.05 22.35 22.7 17.7 22.7 12C22.7 6.30002 18.05 1.65002 12.35 1.65002ZM6.95 16.7625C7.4 16.7625 7.85 16.8375 8.225 17.0625C8.675 17.325 9.2 17.475 9.7625 17.475C10.325 17.475 10.775 17.1375 11.225 16.8375L11.45 16.6875C12.2375 16.0875 12.65 15.8625 13.175 16.1625C14.1875 16.65 14.0375 17.7 13.775 18.6375V18.7125C13.55 19.3125 13.3625 20.1375 13.8125 21.0375C10.475 21.5625 7.175 20.2875 5.1125 17.625C5.9 17.1 6.5 16.8375 6.95 16.8V16.7625ZM15.0875 20.7375C14.675 20.175 14.75 19.6875 14.9375 19.05V18.975C15.6875 16.65 14.7125 15.6 13.775 15.075C12.425 14.4 11.375 15.225 10.7 15.75C10.4 16.05 10.1 16.2375 9.7625 16.275C9.3875 16.275 9.0875 16.2 8.825 16.0125C8.2625 15.675 7.5875 15.525 6.875 15.5625C6.0125 15.6375 5.1125 16.1625 4.475 16.575C3.9125 15.6375 3.5375 14.625 3.35 13.575C5.45 13.125 6.6125 11.85 6.8375 10.8375C6.875 10.425 6.8375 10.0125 6.6875 9.63752C6.575 9.37502 6.5375 9.07502 6.65 8.77502C6.725 8.58752 6.875 8.40002 7.0625 8.21252C7.6625 7.76252 7.9625 7.01252 7.925 6.26252C7.85 5.58752 7.5875 4.95002 7.2125 4.38752C8.6375 3.41252 10.325 2.85002 12.125 2.81252C11.8625 3.33752 11.6 3.78752 11.3 4.20002C9.95 6.22502 10.4375 7.61252 10.8875 8.28752C11.75 9.67502 12.8375 9.71252 13.8125 9.75002H13.925C14.675 9.75002 15.275 9.75002 15.8 10.425C17.9 12.9 19.3625 13.875 21.0125 13.875C22.6625 13.875 21.2 13.875 21.3125 13.875C20.6 17.1375 18.2 19.725 15.05 20.7L15.0875 20.7375ZM21.5 11.4375V12C21.5 12.225 21.5 12.45 21.5 12.6375C20.1875 12.7875 19.025 12.3375 16.7375 9.67502C15.875 8.66252 14.9 8.62502 14.0375 8.58752H13.925C13.0625 8.58752 12.4625 8.58752 11.9375 7.72502C11.4875 6.97502 11.6 6.07502 12.35 4.98752C12.8 4.27502 13.175 3.63752 13.5125 2.96252C17.9 3.48752 21.2375 7.05002 21.5 11.475V11.4375ZM6.275 7.31252C6.0125 7.53752 5.75 7.87502 5.525 8.25002C5.3 8.77502 5.3 9.41252 5.525 9.97503C5.6 10.1625 5.6375 10.3875 5.6375 10.6125C5.525 11.175 4.6625 11.9625 3.2375 12.3375V11.9625C3.2375 9.37502 4.3625 6.90002 6.275 5.17502C6.5375 5.55002 6.6875 5.92502 6.725 6.33752C6.725 6.78752 6.5375 6.97502 6.2375 7.27502L6.275 7.31252Z" fill="black"/>
</svg>
